<svg width="260" height="112" viewBox="0 0 260 112" fill="none" xmlns="http://www.w3.org/2000/svg">
<path d="M221.047 67.9204L216.18 64.4882C219.85 63.0228 222.361 59.3977 222.361 55.1171V43.7022H218.189V55.1171C218.189 58.9735 215.6 60.8246 212.935 60.8246C210.192 60.8246 207.371 58.8193 207.371 54.9243V43.7022H203.16V54.8857C203.16 59.0121 205.556 61.943 208.878 64.2954L218.691 71.3526C219.309 71.8154 219.541 72.471 219.541 73.1266C219.541 74.4377 218.729 75.7489 217.339 75.7489H208.724C207.255 75.7489 206.521 74.5534 206.521 73.3194C206.521 72.2782 207.255 71.1984 208.724 71.1984H210.346V67.4576H208.724C205.169 67.4576 202.272 70.1186 202.272 73.3194C202.272 76.7516 205.131 79.5282 208.724 79.5282H217.339C221.279 79.5282 223.79 76.3274 223.79 73.0494C223.713 71.1598 222.94 69.2316 221.047 67.9204ZM188.325 51.6849V64.681H192.498V51.6849C192.498 49.4868 194.236 47.6743 196.361 47.6743H198.756V43.6636H196.361C191.88 43.6636 188.325 47.2886 188.325 51.6849ZM183.612 47.6743V43.6636C181.14 43.6636 178.86 44.8976 177.045 46.8644V40H172.872V53.3817C172.872 60.3618 177.083 64.6425 183.612 64.6425V60.6318C179.362 60.6318 177.199 57.3924 177.199 54.1916C177.199 50.9522 179.362 47.6743 183.612 47.6743ZM157.38 56.1969H167.811C168.159 55.0014 168.313 53.8059 168.313 52.7262C168.313 47.5586 164.566 43.6636 158.887 43.6636C153.633 43.6636 148.147 47.3272 148.147 54.3073C148.147 61.1717 153.362 65.1438 159.891 65.1438C161.707 65.1438 163.562 64.8738 165.416 64.2568V60.5161C163.678 60.9789 162.016 61.1717 160.548 61.1717C155.719 61.1717 152.397 58.935 152.397 54.3073C152.397 50.1038 155.294 47.6743 158.926 47.6743C161.707 47.6743 164.257 49.1397 164.257 52.4562H157.496L157.38 56.1969ZM128.599 46.7102C126.783 44.5891 124.465 43.625 122.147 43.625C117.704 43.625 113.455 47.0958 113.455 52.4176V64.6039H117.627V52.2634C117.627 49.4096 119.829 47.8671 122.031 47.8671C124.233 47.8671 126.435 49.3711 126.435 52.4562V64.6425H130.608V52.2634C130.608 49.4096 132.81 47.8671 135.05 47.8671C137.214 47.8671 139.455 49.3711 139.455 52.4176V64.681H143.588V52.2634C143.588 47.0958 139.377 43.6636 134.973 43.6636C132.694 43.6636 130.376 44.5891 128.599 46.7102ZM98.1946 61.0946C94.6018 61.0946 91.6656 58.0866 91.6656 54.423C91.6656 50.6437 94.5631 47.6743 98.1946 47.6743C101.787 47.6743 104.724 50.6823 104.724 54.423C104.724 58.1251 101.787 61.0946 98.1946 61.0946ZM98.1946 43.6636C92.2838 43.6636 87.416 48.4841 87.416 54.423C87.416 60.2847 92.2838 65.1438 98.1946 65.1438C104.144 65.1438 108.935 60.2847 108.935 54.423C108.935 48.4841 104.144 43.6636 98.1946 43.6636ZM72.5423 56.1969H82.9732C83.2823 55.0014 83.4755 53.8059 83.4755 52.7262C83.4755 47.5586 79.7281 43.6636 74.049 43.6636C68.7949 43.6636 63.309 47.3272 63.309 54.3073C63.309 61.1717 68.5245 65.1438 75.0535 65.1438C76.8692 65.1438 78.7236 64.8738 80.578 64.2568V60.5161C78.8395 60.9789 77.1783 61.1717 75.7102 61.1717C70.8038 61.1717 67.4814 58.935 67.4814 54.3073C67.4814 50.1038 70.3789 47.6743 74.0104 47.6743C76.792 47.6743 79.3417 49.1397 79.3417 52.4562H72.581L72.5423 56.1969ZM47.8559 61.1331C43.529 61.1331 41.4042 57.8166 41.4042 54.4615C41.4042 51.1065 43.5676 47.7128 47.8945 47.7128C52.2987 47.7128 54.4621 51.0679 54.4621 54.3844C54.4621 57.7781 52.2214 61.1331 47.8559 61.1331ZM59.4071 43.6636H48.1263C41.3269 43.6636 37.1932 49.024 37.1932 54.423C37.1932 57.4695 38.2363 60.3233 41.4428 62.7143L53.419 71.3526C54.0371 71.8154 54.2689 72.471 54.2689 73.1266C54.2689 74.4377 53.4576 75.7489 52.0669 75.7489H43.4517C41.9837 75.7489 41.2496 74.5534 41.2496 73.3194C41.2496 72.2782 41.9837 71.1984 43.4517 71.1984H45.0743V67.4576H43.4517C39.8975 67.4576 37 70.1186 37 73.3194C37 76.7516 39.8588 79.5282 43.4517 79.5282H52.0669C56.0074 79.5282 58.5186 76.3274 58.5186 73.0494C58.5186 71.1598 57.7073 69.2702 55.8529 67.9204L51.0624 64.5268C55.5052 63.177 58.7117 59.7063 58.7117 54.3844C58.7117 51.9549 57.7845 49.3325 56.0074 47.3657H59.4458V43.6636H59.4071Z" fill="#49515E"/>
</svg>
