<svg width="260" height="112" viewBox="0 0 260 112" fill="none" xmlns="http://www.w3.org/2000/svg">
<g clip-path="url(#clip0)">
<path d="M122.668 86.0972C122.649 86.063 122.622 86.0344 122.588 86.0142C122.555 85.9939 122.516 85.9828 122.477 85.9819H120.191C120.156 85.982 120.121 85.9906 120.091 86.0071C120.06 86.0235 120.034 86.0473 120.014 86.0762L115.283 92.8225L110.785 86.0797C110.765 86.0499 110.739 86.0253 110.707 86.0082C110.676 85.9911 110.64 85.9821 110.604 85.9819H108.216C108.176 85.9824 108.138 85.9934 108.104 86.0137C108.071 86.034 108.043 86.0628 108.025 86.0972C108.004 86.1296 107.993 86.1671 107.993 86.2054C107.993 86.2437 108.004 86.2813 108.025 86.3137L113.947 95.2633V103.504C113.946 103.532 113.952 103.56 113.963 103.586C113.974 103.612 113.99 103.635 114.011 103.654C114.031 103.675 114.055 103.691 114.082 103.701C114.109 103.712 114.137 103.718 114.166 103.717H116.265C116.293 103.717 116.321 103.712 116.346 103.701C116.372 103.69 116.395 103.674 116.414 103.654C116.434 103.635 116.451 103.612 116.462 103.586C116.473 103.56 116.478 103.532 116.477 103.504V95.2423L122.64 86.3171C122.659 86.2835 122.669 86.2456 122.669 86.2072C122.669 86.1687 122.659 86.1308 122.64 86.0972" fill="#49515E"/>
<path d="M130.686 92.7073C130.175 92.0672 129.527 91.5472 128.788 91.1849C127.968 90.7831 127.061 90.583 126.145 90.6017C125.226 90.58 124.315 90.7751 123.488 91.1709C122.753 91.5327 122.105 92.0473 121.59 92.6794C121.081 93.3129 120.7 94.0372 120.467 94.8129C119.977 96.4065 119.977 98.1079 120.467 99.7015C120.707 100.488 121.094 101.224 121.608 101.87C122.118 102.509 122.757 103.036 123.484 103.417L123.587 103.232L123.491 103.424C124.316 103.811 125.221 104.004 126.135 103.986C127.05 104.006 127.957 103.807 128.778 103.406C129.516 103.043 130.164 102.523 130.675 101.884C131.181 101.244 131.563 100.517 131.802 99.7399C132.304 98.148 132.304 96.4432 131.802 94.8513C131.563 94.0745 131.181 93.3478 130.675 92.7073H130.686ZM122.516 97.2467C122.514 96.6653 122.591 96.0863 122.746 95.5252C122.885 94.9927 123.114 94.4873 123.424 94.0307C123.711 93.6001 124.096 93.2414 124.548 92.9832C125.038 92.7275 125.584 92.5939 126.138 92.5939C126.692 92.5939 127.238 92.7275 127.728 92.9832C128.182 93.2448 128.572 93.6025 128.87 94.0307C129.192 94.4882 129.431 94.9974 129.576 95.5357C129.883 96.6741 129.883 97.8717 129.576 99.0101C129.433 99.5481 129.193 100.057 128.87 100.512C128.567 100.937 128.177 101.294 127.725 101.559C127.247 101.84 126.701 101.985 126.145 101.978C125.6 101.99 125.062 101.854 124.59 101.584C124.136 101.317 123.743 100.96 123.435 100.536C123.125 100.072 122.895 99.5596 122.756 99.0206C122.601 98.4454 122.524 97.8524 122.527 97.2572" fill="#49515E"/>
<path d="M140.77 101.378C140.755 101.35 140.734 101.327 140.708 101.308C140.683 101.29 140.653 101.278 140.622 101.273C140.561 101.263 140.499 101.277 140.449 101.311C140.211 101.496 139.952 101.652 139.679 101.779C139.411 101.904 139.119 101.969 138.823 101.968C138.546 101.982 138.272 101.894 138.057 101.72C137.901 101.605 137.774 101.259 137.778 100.672V92.9729H140.862C140.918 92.9711 140.971 92.9485 141.01 92.9096C141.05 92.8706 141.073 92.8184 141.074 92.7634V91.1257C141.075 91.0981 141.07 91.0706 141.059 91.0452C141.048 91.0199 141.032 90.9972 141.011 90.979C140.992 90.9578 140.97 90.9409 140.944 90.9294C140.918 90.9179 140.89 90.9122 140.862 90.9127H137.802V87.7526C137.802 87.6968 137.781 87.6431 137.742 87.6024C137.701 87.5633 137.647 87.5409 137.59 87.5396H135.562C135.505 87.5409 135.451 87.5633 135.41 87.6024C135.371 87.6427 135.349 87.6967 135.35 87.7526V90.9127H133.414C133.357 90.9144 133.303 90.9374 133.263 90.977C133.223 91.0166 133.2 91.0697 133.198 91.1257V92.7634C133.198 92.7908 133.203 92.8181 133.214 92.8434C133.225 92.8687 133.241 92.8914 133.262 92.91C133.281 92.9308 133.304 92.9473 133.331 92.9581C133.357 92.969 133.385 92.974 133.414 92.9729H135.354V100.882C135.354 101.902 135.615 102.701 136.18 103.232C136.826 103.778 137.661 104.054 138.509 104C139.111 104.028 139.712 103.935 140.276 103.724C140.713 103.528 141.128 103.285 141.513 103.001C141.554 102.97 141.582 102.924 141.592 102.874C141.603 102.823 141.594 102.771 141.569 102.726L140.77 101.378Z" fill="#49515E"/>
<path d="M151.583 91.7224C150.756 90.9681 149.604 90.6015 148.17 90.605C147.242 90.5748 146.318 90.744 145.463 91.1008C144.716 91.459 144.071 91.994 143.583 92.6582C143.552 92.7069 143.538 92.7648 143.544 92.8223C143.555 92.878 143.587 92.9278 143.633 92.962L145.046 93.9467C145.091 93.9775 145.146 93.99 145.2 93.9815C145.254 93.9731 145.303 93.9443 145.336 93.9013C145.65 93.5118 146.044 93.1918 146.491 92.962C146.951 92.7278 147.462 92.6079 147.979 92.6128C148.3 92.5917 148.622 92.6349 148.926 92.7399C149.229 92.8449 149.508 93.0095 149.746 93.2239C150.124 93.6045 150.347 94.2714 150.35 95.2526C149.542 95.2658 148.735 95.3347 147.937 95.4587C147.072 95.5878 146.231 95.8346 145.435 96.1919C144.703 96.5204 144.054 97.0045 143.534 97.6096C143.005 98.2667 142.732 99.0892 142.763 99.9282C142.75 100.544 142.884 101.154 143.152 101.709C143.395 102.2 143.741 102.634 144.166 102.984C144.593 103.326 145.081 103.587 145.604 103.752C146.139 103.921 146.697 104.006 147.258 104.003C147.929 104.016 148.595 103.897 149.219 103.654C149.674 103.466 150.098 103.212 150.477 102.9L150.537 103.542C150.543 103.595 150.568 103.644 150.608 103.68C150.647 103.715 150.699 103.735 150.753 103.734H152.59C152.647 103.733 152.701 103.711 152.742 103.671C152.781 103.631 152.803 103.577 152.802 103.521V95.4342C152.802 93.7442 152.41 92.4906 151.566 91.7224H151.583ZM150.368 97.2639V100.787C149.983 101.103 149.562 101.373 149.113 101.59C148.614 101.827 148.066 101.946 147.513 101.94C147.242 101.939 146.974 101.901 146.714 101.828C146.457 101.76 146.217 101.641 146.007 101.479C145.789 101.307 145.606 101.094 145.47 100.854C145.325 100.574 145.254 100.263 145.265 99.9492C145.237 99.4492 145.409 98.9584 145.746 98.5839C146.101 98.2166 146.539 97.9388 147.025 97.7737C147.589 97.5719 148.177 97.4405 148.774 97.3827C149.336 97.3198 149.866 97.2814 150.371 97.2604" fill="#49515E"/>
<path d="M146.869 30.6538C150.818 26.6684 153.02 21.3071 153 15.7296V11.6476C153 11.0373 152.878 10.4329 152.642 9.86907C152.406 9.30519 152.059 8.79284 151.623 8.36126C151.186 7.92969 150.667 7.58735 150.097 7.35378C149.526 7.12021 148.915 7 148.297 7C147.679 7 147.068 7.12021 146.497 7.35378C145.927 7.58735 145.408 7.92969 144.971 8.36126C144.535 8.79284 144.188 9.30519 143.952 9.86907C143.715 10.4329 143.594 11.0373 143.594 11.6476V15.7296C143.611 18.8701 142.376 21.891 140.156 24.138C139.086 25.2255 137.806 26.0899 136.392 26.6802C134.978 27.2704 133.459 27.5746 131.924 27.5746C130.389 27.5746 128.87 27.2704 127.456 26.6802C126.042 26.0899 124.763 25.2255 123.693 24.138C121.461 21.8959 120.216 18.8742 120.226 15.7296V11.6476C120.16 10.46 119.636 9.34241 118.762 8.5247C117.888 7.70699 116.73 7.25129 115.527 7.25129C114.323 7.25129 113.165 7.70699 112.291 8.5247C111.417 9.34241 110.893 10.46 110.827 11.6476V15.7296C110.815 21.3069 113.023 26.6651 116.975 30.6468C119.773 33.4699 123.328 35.4447 127.223 36.3385V46.1157C123.328 47.0108 119.773 48.9867 116.975 51.8109C113.02 55.7947 110.811 61.1574 110.827 66.7385V70.8274C110.861 72.0385 111.371 73.1888 112.25 74.0336C113.128 74.8785 114.306 75.3512 115.532 75.3512C116.758 75.3512 117.935 74.8785 118.814 74.0336C119.693 73.1888 120.203 72.0385 120.237 70.8274V66.7385C120.218 63.5977 121.453 60.5763 123.675 58.3301C124.745 57.2391 126.025 56.3716 127.441 55.7792C128.856 55.1868 130.378 54.8815 131.915 54.8815C133.453 54.8815 134.974 55.1868 136.39 55.7792C137.805 56.3716 139.086 57.2391 140.156 58.3301C142.381 60.5711 143.622 63.5884 143.611 66.728V70.817C143.611 72.0496 144.107 73.2317 144.989 74.1034C145.871 74.975 147.067 75.4646 148.315 75.4646C149.562 75.4646 150.758 74.975 151.64 74.1034C152.522 73.2317 153.018 72.0496 153.018 70.817V66.7385C153.032 61.1619 150.823 55.8042 146.869 51.8248C144.073 49.0001 140.517 47.0241 136.622 46.1296V36.3315C140.517 35.4384 144.073 33.4636 146.869 30.6398" fill="#49515E"/>
<path d="M131.908 74.4975C133.52 74.4975 135.095 74.0252 136.435 73.1404C137.775 72.2556 138.82 70.998 139.437 69.5267C140.053 68.0554 140.215 66.4363 139.9 64.8744C139.586 63.3124 138.81 61.8776 137.67 60.7515C136.531 59.6254 135.079 58.8585 133.498 58.5478C131.917 58.2371 130.279 58.3966 128.79 59.006C127.301 59.6155 126.029 60.6475 125.133 61.9717C124.238 63.2959 123.76 64.8527 123.76 66.4453C123.76 67.5028 123.97 68.5501 124.379 69.5272C124.789 70.5044 125.389 71.3922 126.146 72.14C126.902 72.8878 127.801 73.4809 128.79 73.8854C129.778 74.2899 130.838 74.4979 131.908 74.4975Z" fill="#49515E"/>
</g>
<defs>
<clipPath id="clip0">
<rect width="45" height="97" fill="white" transform="translate(108 7)"/>
</clipPath>
</defs>
</svg>
