<svg width="260" height="112" viewBox="0 0 260 112" fill="none" xmlns="http://www.w3.org/2000/svg">
<g clip-path="url(#clip0)">
<path d="M120.028 59.1267C120.028 66.7267 115.297 70.2733 109.544 70.2733H105.965V65.7133H109.289C112.868 65.7133 115.17 63.8133 115.17 59.1267C115.17 54.44 112.996 52.16 109.161 52.16C105.581 52.16 102.896 54.3133 102.896 59.1267V78.1267H98.038V48.1067H102.896V50.64H103.535C105.197 48.6133 107.627 47.6 110.184 47.6C115.553 47.6 120.028 51.4 120.028 59.1267ZM87.938 57.1L84.7418 56.72C82.1848 56.4667 80.9063 55.8333 80.9063 54.3133C80.9063 52.54 82.5684 51.5267 85.1253 51.5267C87.6823 51.5267 89.3443 52.6667 89.4722 54.44H94.2025C94.0747 50.1333 90.6228 47.4733 85.2532 47.4733C79.8835 47.4733 76.176 50.26 76.176 54.44C76.176 57.9867 78.3494 60.14 83.4633 60.6467L86.7873 61.0267C88.8329 61.1533 90.1114 61.66 90.1114 63.56C90.1114 65.2067 88.8329 66.4733 85.5089 66.4733C82.4405 66.4733 81.0342 65.08 80.3949 63.3067H75.281C75.7924 67.4867 79.3721 70.6533 85.381 70.6533C91.1342 70.6533 94.8418 67.6133 94.8418 63.3067C94.7139 59.5067 92.157 57.6067 87.938 57.1ZM138.822 63.4333C138.054 65.2067 136.265 66.4733 133.58 66.4733C130 66.4733 127.315 64.1933 127.315 59.2533C127.315 54.5667 129.744 51.9067 133.58 51.9067C136.904 51.9067 138.949 53.9333 139.077 56.9733H130.256V60.52H144.063V58.24C144.063 51.9067 139.844 47.7267 133.708 47.7267C128.082 47.7267 122.585 51.5267 122.585 59.38C122.585 67.2333 127.954 71.0333 133.708 71.0333C138.949 71.0333 142.529 67.8667 143.68 63.6867H138.822V63.4333ZM62.1127 47.6C56.743 47.6 52.7797 50.3867 52.2684 54.5667H57.5101C57.8937 53.0467 59.3 51.9067 62.1127 51.9067C65.6924 51.9067 66.843 53.68 66.843 55.96V63.56C64.7975 65.84 62.4962 66.8533 60.1949 66.8533C57.7658 66.8533 56.1038 65.7133 56.1038 63.6867C56.1038 61.66 57.3823 60.52 59.9392 60.52H63.7747V56.9733H59.6835C54.0582 56.9733 50.9899 59.76 50.9899 63.94C50.9899 67.8667 54.0582 70.9067 58.9165 70.9067C61.7291 70.9067 64.1582 69.7667 65.9481 68.5H66.5873V70.4H71.4456V55.4533C71.5734 50.0067 67.8658 47.6 62.1127 47.6ZM29 70.2733H33.8582V40H29V70.2733ZM49.4557 48.1067H43.5747L36.4152 57.3533V60.2667L43.7025 70.2733H49.7114L41.1456 58.8733L49.4557 48.1067ZM225.63 48.1067L221.667 56.8467C220.644 59 219.749 61.0267 219.494 62.42H218.854C218.599 61.0267 217.576 59 216.681 56.9733L212.718 48.2333H207.348L216.681 68.12L211.823 78H217.065L231 48.1067H225.63ZM206.07 48.1067H200.189L193.029 57.3533V60.2667L200.316 70.2733H206.325L197.759 58.8733L206.07 48.1067ZM175.514 57.1L172.318 56.72C169.761 56.4667 168.482 55.8333 168.482 54.3133C168.482 52.54 170.144 51.5267 172.701 51.5267C175.258 51.5267 176.92 52.6667 177.048 54.44H181.778C181.651 50.1333 178.199 47.4733 172.829 47.4733C167.459 47.4733 163.752 50.26 163.752 54.44C163.752 57.9867 165.925 60.14 171.039 60.6467L174.363 61.0267C176.409 61.1533 177.687 61.66 177.687 63.56C177.687 65.2067 176.409 66.4733 173.085 66.4733C170.016 66.4733 168.61 65.08 167.971 63.3067H162.857C163.368 67.4867 166.948 70.6533 172.957 70.6533C178.71 70.6533 182.418 67.6133 182.418 63.3067C182.29 59.5067 179.733 57.6067 175.514 57.1ZM185.614 70.2733H190.472V40H185.614V70.2733ZM153.524 50.7667H152.885V48.2333H147.899V70.2733H152.757V58.7467C152.757 54.82 154.547 52.54 158.254 52.54H161.323V47.6H159.533C156.209 47.6 154.803 48.8667 153.524 50.7667Z" fill="#49515E"/>
</g>
<defs>
<clipPath id="clip0">
<rect width="202" height="38" fill="white" transform="translate(29 40)"/>
</clipPath>
</defs>
</svg>
