<svg width="260" height="112" viewBox="0 0 260 112" fill="none" xmlns="http://www.w3.org/2000/svg">
<path d="M75.4361 104.662L75.0182 101.757H74.8845C73.9707 102.94 73.0291 103.778 72.0596 104.274C71.1013 104.758 69.9647 105 68.6497 105C66.8668 105 65.4794 104.538 64.4877 103.615C63.4959 102.692 63 101.414 63 99.7814C63 97.9911 63.7355 96.6006 65.2064 95.6097C66.6885 94.6189 68.828 94.0953 71.625 94.039L75.0851 93.9377V92.7217C75.0851 90.9765 74.7341 89.6591 74.032 88.7696C73.33 87.8801 72.1989 87.4354 70.6388 87.4354C68.9562 87.4354 67.2122 87.9083 65.407 88.8541L64.7885 87.4016C66.7832 86.4558 68.7556 85.9829 70.7057 85.9829C72.7004 85.9829 74.188 86.5065 75.1687 87.5536C76.1604 88.6007 76.6563 90.2334 76.6563 92.4515V104.662H75.4361ZM68.75 103.48C70.689 103.48 72.2156 102.923 73.33 101.808C74.4555 100.682 75.0182 99.1227 75.0182 97.1298V95.3226L71.8423 95.4577C69.2905 95.5816 67.4685 95.9869 66.3765 96.6738C65.2956 97.3493 64.7551 98.4077 64.7551 99.8489C64.7551 100.997 65.1005 101.892 65.7914 102.534C66.4935 103.165 67.4797 103.48 68.75 103.48Z" fill="#49515E"/>
<path d="M86.535 104.662L79.5146 86.3038H81.2196L85.9165 98.7849C86.5406 100.384 87.0086 101.78 87.3206 102.973H87.4209C87.8778 101.442 88.3458 100.035 88.825 98.7511L93.522 86.3038H95.2269L88.2065 104.662H86.535Z" fill="#49515E"/>
<path d="M99.9239 104.662H98.2691V86.3038H99.9239V104.662ZM98.0351 81.2033C98.0351 80.1224 98.3861 79.5819 99.0881 79.5819C99.4336 79.5819 99.701 79.7227 99.8904 80.0042C100.091 80.2857 100.191 80.6854 100.191 81.2033C100.191 81.71 100.091 82.1097 99.8904 82.4024C99.701 82.6952 99.4336 82.8415 99.0881 82.8415C98.3861 82.8415 98.0351 82.2955 98.0351 81.2033Z" fill="#49515E"/>
<path d="M117.057 104.662L116.639 101.757H116.505C115.592 102.94 114.65 103.778 113.68 104.274C112.722 104.758 111.586 105 110.271 105C108.488 105 107.1 104.538 106.109 103.615C105.117 102.692 104.621 101.414 104.621 99.7814C104.621 97.9911 105.356 96.6006 106.827 95.6097C108.309 94.6189 110.449 94.0953 113.246 94.039L116.706 93.9377V92.7217C116.706 90.9765 116.355 89.6591 115.653 88.7696C114.951 87.8801 113.82 87.4354 112.26 87.4354C110.577 87.4354 108.833 87.9083 107.028 88.8541L106.409 87.4016C108.404 86.4558 110.376 85.9829 112.327 85.9829C114.321 85.9829 115.809 86.5065 116.79 87.5536C117.781 88.6007 118.277 90.2334 118.277 92.4515V104.662H117.057ZM110.371 103.48C112.31 103.48 113.836 102.923 114.951 101.808C116.076 100.682 116.639 99.1227 116.639 97.1298V95.3226L113.463 95.4577C110.911 95.5816 109.089 95.9869 107.997 96.6738C106.916 97.3493 106.376 98.4077 106.376 99.8489C106.376 100.997 106.721 101.892 107.412 102.534C108.114 103.165 109.101 103.48 110.371 103.48Z" fill="#49515E"/>
<path d="M135.444 99.8827C135.444 101.527 134.825 102.793 133.588 103.683C132.351 104.561 130.596 105 128.323 105C125.894 105 123.966 104.623 122.54 103.869V102.061C124.367 102.985 126.295 103.446 128.323 103.446C130.117 103.446 131.477 103.148 132.402 102.551C133.338 101.943 133.806 101.138 133.806 100.136C133.806 99.2128 133.432 98.4359 132.686 97.8053C131.95 97.1748 130.736 96.5555 129.042 95.9475C127.225 95.2832 125.949 94.7146 125.214 94.2417C124.479 93.7576 123.921 93.2171 123.542 92.6204C123.175 92.0123 122.991 91.2749 122.991 90.4079C122.991 89.0342 123.559 87.9477 124.696 87.1483C125.844 86.3489 127.443 85.9491 129.493 85.9491C131.454 85.9491 133.315 86.3207 135.076 87.0638L134.457 88.5839C132.675 87.8407 131.02 87.4692 129.493 87.4692C128.011 87.4692 126.835 87.7169 125.966 88.2123C125.097 88.7077 124.662 89.3945 124.662 90.2728C124.662 91.2298 124.997 91.9955 125.665 92.5697C126.345 93.1439 127.666 93.7857 129.627 94.4951C131.265 95.0918 132.457 95.6323 133.204 96.1164C133.95 96.5893 134.508 97.1298 134.875 97.7378C135.254 98.3458 135.444 99.0607 135.444 99.8827Z" fill="#49515E"/>
<path d="M151.156 104.662L150.738 101.757H150.604C149.691 102.94 148.749 103.778 147.779 104.274C146.821 104.758 145.685 105 144.37 105C142.587 105 141.199 104.538 140.208 103.615C139.216 102.692 138.72 101.414 138.72 99.7814C138.72 97.9911 139.455 96.6006 140.926 95.6097C142.408 94.6189 144.548 94.0953 147.345 94.039L150.805 93.9377V92.7217C150.805 90.9765 150.454 89.6591 149.752 88.7696C149.05 87.8801 147.919 87.4354 146.359 87.4354C144.676 87.4354 142.932 87.9083 141.127 88.8541L140.508 87.4016C142.503 86.4558 144.475 85.9829 146.426 85.9829C148.42 85.9829 149.908 86.5065 150.889 87.5536C151.88 88.6007 152.376 90.2334 152.376 92.4515V104.662H151.156ZM144.47 103.48C146.409 103.48 147.936 102.923 149.05 101.808C150.175 100.682 150.738 99.1227 150.738 97.1298V95.3226L147.562 95.4577C145.01 95.5816 143.188 95.9869 142.096 96.6738C141.015 97.3493 140.475 98.4077 140.475 99.8489C140.475 100.997 140.82 101.892 141.511 102.534C142.213 103.165 143.2 103.48 144.47 103.48Z" fill="#49515E"/>
<path d="M159.931 104.662H158.277V78.3828H159.931V104.662Z" fill="#49515E"/>
<path d="M173.37 105C170.729 105 168.668 104.178 167.186 102.534C165.715 100.89 164.979 98.5879 164.979 95.6266C164.979 92.6992 165.693 90.3572 167.119 88.6007C168.545 86.833 170.468 85.9491 172.886 85.9491C175.025 85.9491 176.714 86.7035 177.95 88.2123C179.187 89.7211 179.806 91.7703 179.806 94.3599V95.7111H166.718C166.74 98.2332 167.32 100.159 168.456 101.487C169.604 102.816 171.242 103.48 173.37 103.48C174.407 103.48 175.315 103.407 176.095 103.261C176.886 103.114 177.884 102.799 179.087 102.315V103.835C178.062 104.285 177.115 104.589 176.245 104.747C175.376 104.916 174.418 105 173.37 105ZM172.886 87.4354C171.136 87.4354 169.732 88.0209 168.673 89.1919C167.615 90.3516 166.996 92.0292 166.818 94.2248H178.051C178.051 92.0968 177.594 90.436 176.68 89.2425C175.766 88.0378 174.502 87.4354 172.886 87.4354Z" fill="#49515E"/>
<path d="M196.086 99.8827C196.086 101.527 195.468 102.793 194.231 103.683C192.994 104.561 191.239 105 188.966 105C186.536 105 184.609 104.623 183.182 103.869V102.061C185.01 102.985 186.938 103.446 188.966 103.446C190.76 103.446 192.119 103.148 193.044 102.551C193.98 101.943 194.448 101.138 194.448 100.136C194.448 99.2128 194.075 98.4359 193.328 97.8053C192.593 97.1748 191.378 96.5555 189.685 95.9475C187.868 95.2832 186.592 94.7146 185.857 94.2417C185.121 93.7576 184.564 93.2171 184.185 92.6204C183.817 92.0123 183.634 91.2749 183.634 90.4079C183.634 89.0342 184.202 87.9477 185.339 87.1483C186.486 86.3489 188.085 85.9491 190.136 85.9491C192.097 85.9491 193.958 86.3207 195.719 87.0638L195.1 88.5839C193.317 87.8407 191.662 87.4692 190.136 87.4692C188.654 87.4692 187.478 87.7169 186.609 88.2123C185.74 88.7077 185.305 89.3945 185.305 90.2728C185.305 91.2298 185.639 91.9955 186.308 92.5697C186.988 93.1439 188.308 93.7857 190.27 94.4951C191.908 95.0918 193.1 95.6323 193.847 96.1164C194.593 96.5893 195.15 97.1298 195.518 97.7378C195.897 98.3458 196.086 99.0607 196.086 99.8827Z" fill="#49515E"/>
<path d="M145.393 46.7243C145.393 54.3868 139.222 60.5975 131.56 60.5975H127.446C119.824 60.5975 113.613 54.3868 113.613 46.7243V32.73C113.613 25.0675 119.784 18.8568 127.446 18.8568H131.6C139.222 18.8568 145.433 25.0675 145.433 32.73V46.7243H145.393ZM156.967 24.8658H159.306V16.8C159.306 10.7909 155.435 7 149.426 7H109.58C103.571 7 99.6997 10.7909 99.6997 16.8V24.8658H102.039C106.394 24.8658 109.621 28.6568 109.621 32.8107V40.7556C109.621 44.9095 106.394 48.7004 102.039 48.7004H99.6997V56.7663C99.6997 62.7753 103.571 66.5663 109.58 66.5663H149.426C155.435 66.5663 159.306 62.7753 159.306 56.7663V48.7004H156.967C152.612 48.7004 149.385 44.9095 149.385 40.7556V32.8107C149.345 28.6165 152.571 24.8658 156.967 24.8658Z" fill="#49515E"/>
<path d="M139.424 40.715C139.424 44.8689 135.068 48.6599 130.713 48.6599H128.293C123.938 48.6599 119.582 44.8689 119.582 40.715V32.7702C119.582 28.6163 123.938 24.8253 128.293 24.8253H130.713C135.109 24.8253 139.424 28.6163 139.424 32.7702V40.715ZM131.56 20.873H127.164C120.792 20.873 115.589 26.6804 115.589 33.0525V46.4418C115.589 52.8138 120.792 58.6212 127.164 58.6212H131.56C137.932 58.6212 143.376 52.8138 143.376 46.4418V33.0525C143.417 26.6804 137.932 20.873 131.56 20.873Z" fill="#49515E"/>
<path d="M130.431 44.5465H130.189C126.882 44.5465 123.736 42.6107 123.736 39.223V35.9967C123.736 35.9967 123.736 34.8271 122.647 34.8271C121.558 34.8271 121.558 35.9967 121.558 35.9967V39.223C121.558 43.8206 125.672 46.7243 130.189 46.7243H130.431C130.431 46.7243 131.479 46.7243 131.479 45.6757C131.479 44.5868 130.431 44.5465 130.431 44.5465Z" fill="#49515E"/>
</svg>
