<svg width="260" height="112" viewBox="0 0 260 112" fill="none" xmlns="http://www.w3.org/2000/svg">
<path d="M167 89.0352C166.846 89.0341 166.692 89.0418 166.539 89.0582C165.439 89.2449 164.617 88.9845 164.322 87.7621C164.288 87.6192 163.998 87.4464 163.824 87.4418C162.522 87.4153 161.22 87.413 159.918 87.4418C159.732 87.4418 159.427 87.6377 159.387 87.7955C159.093 88.9407 158.344 89.2529 157.269 89.0559C157.102 89.0364 156.934 89.0264 156.766 89.026C158.465 85.6848 160.141 82.3955 161.863 79.0151C162.564 80.385 163.222 81.665 163.878 82.9543C164.843 84.8445 165.807 86.7321 166.77 88.617C166.837 88.7247 166.914 88.8261 167 88.92V89.0352ZM160.297 85.8703H163.439C162.905 84.755 162.402 83.7101 161.863 82.5729L160.297 85.8703Z" fill="#49515E"/>
<path d="M129.167 69.6689C129.627 67.4026 130.072 65.1963 130.555 62.9992C130.594 62.8241 130.9 62.6351 131.118 62.5833C132.961 62.1495 134.733 61.4584 136.383 60.5302C141.469 57.6407 144.794 53.3478 146.522 47.7865C147.252 45.5015 147.519 43.0938 147.307 40.7044C146.875 36.0647 145.043 32.1786 140.896 29.7165C138.076 28.0436 135 27.5978 131.774 28.2188C131.404 28.2902 131.031 28.3489 130.615 28.4215V21.5595C131.441 21.4558 132.268 21.314 133.101 21.2518C141.512 20.6193 150.525 25.9341 153.299 35.817C154.361 39.5938 154.504 43.57 153.715 47.4132C152.385 54.0725 149.036 59.5682 143.892 63.9578C140.523 66.8312 136.633 68.6815 132.261 69.4361C131.274 69.6055 130.247 69.5928 129.167 69.6689Z" fill="#49515E"/>
<path d="M162.152 37.9683L157.816 37.0812C157.163 36.9475 156.514 36.7816 155.858 36.6883C155.376 36.6203 155.148 36.4026 155.044 35.9267C154.39 32.9393 153.042 30.2813 151.142 27.8999C148.246 24.2768 144.563 21.8274 140.095 20.5516C135.995 19.3741 131.927 19.3707 127.998 21.1484C123.795 23.0471 121.36 26.3468 120.639 30.9115C120.341 32.7976 120.591 34.6456 120.978 36.5235H114.144C113.779 34.944 113.648 33.3195 113.754 31.7019C114.1 26.7558 116.009 22.4768 119.492 18.9616C122.758 15.67 126.779 13.8255 131.343 13.2056C139.213 12.1307 146.163 14.3819 152.344 19.2266C155.984 22.0816 158.755 25.6267 160.524 29.9149C161.402 32.0441 162.03 34.2469 162.065 36.58C162.065 36.8104 162.131 37.0351 162.147 37.2644C162.161 37.4671 162.152 37.6757 162.152 37.9683Z" fill="#49515E"/>
<path d="M130.219 5C129.997 6.11872 129.798 7.14411 129.589 8.1672C129.372 9.23177 129.128 10.2906 128.931 11.3586C128.851 11.7987 128.687 12.0326 128.215 12.1651C119.599 14.4993 114.419 20.1839 112.411 28.7557C111.469 32.7882 111.923 36.7561 113.993 40.4279C116.544 44.9524 121.764 47.4306 126.89 46.5999C127.49 46.502 128.092 46.4075 128.745 46.3026V53.1002C127.316 53.4305 125.848 53.5596 124.384 53.4839C117.422 53.0691 112.003 49.9722 108.324 44.0134C105.608 39.6111 104.802 34.756 105.329 29.6694C106.061 22.5953 109.195 16.6883 114.298 11.8114C117.717 8.54625 121.738 6.33762 126.396 5.41361C127.625 5.17167 128.892 5.14056 130.219 5Z" fill="#49515E"/>
<path d="M97.3203 36.7642C99.6246 37.2469 101.796 37.6859 103.954 38.1686C104.144 38.2101 104.372 38.4808 104.423 38.6859C104.954 40.8825 105.834 42.9796 107.03 44.897C110.041 49.6519 114.282 52.7638 119.681 54.2696C123.828 55.4217 127.935 55.3584 131.873 53.4631C135.933 51.5045 138.283 48.2394 138.901 43.776C139.154 41.9407 138.901 40.1122 138.455 38.2654C138.654 38.2446 138.815 38.2147 138.977 38.2147C140.913 38.2147 142.849 38.2147 144.785 38.202C145.173 38.202 145.329 38.2815 145.404 38.7147C146.518 45.2438 144.713 50.9019 140.194 55.651C137.017 58.9922 132.997 60.8805 128.455 61.513C119.515 62.7585 111.853 59.9369 105.321 53.8756C101.498 50.327 98.8884 46.0181 97.8238 40.8669C97.5507 39.55 97.4885 38.1893 97.3203 36.7642Z" fill="#49515E"/>
<path d="M137.663 106.604V105.185H130.374C130.348 105.646 130.324 106.115 130.298 106.609H128.757V103.614C128.807 103.595 128.883 103.537 128.942 103.552C129.836 103.768 130.128 103.18 130.386 102.507C131.025 100.806 131.386 99.0132 131.458 97.1977C131.477 96.7967 131.563 96.3912 131.528 95.9972C131.48 95.4441 131.741 95.3842 132.2 95.39C133.942 95.4107 135.685 95.39 137.428 95.39C137.596 95.39 137.766 95.4073 137.99 95.42V103.53H139.244V106.592L137.663 106.604ZM133.127 97.0606C132.999 99.3176 132.666 101.466 131.737 103.513H136.238V97.0606H133.127Z" fill="#49515E"/>
<path d="M100.234 83.9588C101.584 84.6293 102.049 85.3874 101.882 86.6087C101.715 87.83 100.924 88.6825 99.5924 88.906C98.7859 89.0408 97.9576 89.0339 97.1372 89.0524C96.143 89.0731 95.1475 89.0524 94.1521 89.0524C94.1003 89.0451 94.0494 89.0327 94 89.0155V79.2639C94.5127 79.2639 95.0219 79.2535 95.5323 79.2639C96.6395 79.2892 97.7502 79.2892 98.8551 79.3664C99.9265 79.4425 100.846 79.8549 101.202 80.9713C101.565 82.1073 101.256 83.0774 100.302 83.8229C100.276 83.8447 100.268 83.8897 100.234 83.9588ZM95.7236 87.4152C96.711 87.4152 97.6292 87.4359 98.5451 87.4037C98.8491 87.3784 99.1447 87.2914 99.4139 87.1479C99.8862 86.9175 100.014 86.4728 99.9761 85.9854C99.9381 85.4981 99.6362 85.1639 99.1869 85.1236C98.0348 85.0199 96.8826 84.9923 95.7236 84.9347V87.4152ZM95.7236 80.8584V83.3851C96.6453 83.3851 97.537 83.4357 98.4242 83.3678C99.0336 83.3217 99.4519 82.7571 99.4715 82.1742C99.4871 81.9008 99.3993 81.6317 99.2255 81.4201C99.0518 81.2086 98.8048 81.0702 98.5336 81.0324C97.6177 80.9068 96.6833 80.9126 95.7224 80.8607L95.7236 80.8584Z" fill="#49515E"/>
<path d="M117.417 100.321C117.408 97.3868 119.635 95.1367 122.552 95.1367C125.535 95.1367 127.78 97.3592 127.77 100.309C127.773 100.985 127.641 101.656 127.382 102.281C127.124 102.906 126.743 103.474 126.264 103.951C125.784 104.428 125.215 104.805 124.588 105.061C123.962 105.316 123.291 105.445 122.614 105.439C119.657 105.446 117.426 103.251 117.417 100.321ZM122.581 96.8407C120.681 96.8488 119.371 98.2797 119.379 100.336C119.386 102.226 120.819 103.76 122.58 103.764C124.414 103.764 125.824 102.227 125.8 100.245C125.778 98.3189 124.371 96.8338 122.581 96.8407V96.8407Z" fill="#49515E"/>
<path d="M134.071 79.2613V89.0071H132.258V83.3341C131.192 84.3929 130.155 85.424 128.999 86.575L125.869 83.2281C125.819 83.258 125.77 83.288 125.719 83.3168V89.0152H123.93V79.1484L129.045 84.1325L133.842 79.0942L134.071 79.2613Z" fill="#49515E"/>
<path d="M146.712 79.2983H148.44V83.2548H153.365V79.3006H155.116V89.0154H153.38V85.0117H148.496V89.0154H146.712V79.2983Z" fill="#49515E"/>
<path d="M105.916 86.5533V89.0154H104.113V79.364C104.143 79.341 104.173 79.2972 104.203 79.2984C105.938 79.3583 107.704 79.2419 109.403 79.5288C111.822 79.9378 112.974 82.1879 112.053 84.3228C111.477 85.6627 110.301 86.1973 108.961 86.3747C107.981 86.5026 106.983 86.4957 105.916 86.5533ZM105.947 80.924V84.7733C106.856 84.7733 107.734 84.8251 108.604 84.7606C109.658 84.6823 110.313 83.9864 110.388 83.0048C110.458 82.0934 109.877 81.2962 108.831 81.1187C107.901 80.9609 106.942 80.9839 105.947 80.924V80.924Z" fill="#49515E"/>
<path d="M121.296 87.3724V89.0223H114.463V79.3018H121.086V80.962H116.201V83.2766H120.161V84.9622H116.201V87.3724H121.296Z" fill="#49515E"/>
<path d="M137.221 89.0157V79.3032H143.842V80.9669H138.948V83.2896H142.934V84.9717H138.94V87.3819H143.997V89.0157H137.221Z" fill="#49515E"/>
<path d="M150.96 105.153C150.788 105.141 150.616 105.141 150.444 105.153C149.369 105.343 148.613 105.038 148.309 103.893C148.266 103.735 147.963 103.547 147.772 103.547C146.489 103.516 145.204 103.547 143.921 103.518C143.582 103.512 143.402 103.651 143.334 103.93C143.078 104.994 142.412 105.361 141.367 105.158C141.202 105.126 141.022 105.158 140.731 105.158C142.437 101.804 144.109 98.5159 145.845 95.1045L150.96 105.153ZM144.278 101.952H147.402C146.875 100.846 146.385 99.8167 145.839 98.6726C145.292 99.8317 144.805 100.855 144.282 101.952H144.278Z" fill="#49515E"/>
<path d="M110.043 105.145C110.014 105.001 109.994 104.854 109.984 104.707C109.984 101.795 109.984 98.8834 109.973 95.9719C109.973 95.5964 110.046 95.4247 110.475 95.4293C112.447 95.4477 114.418 95.4293 116.388 95.4293C116.453 95.4416 116.517 95.4629 116.576 95.4927V97.063H111.752V97.7243C111.752 100.042 111.752 102.36 111.768 104.679C111.768 105.024 111.675 105.166 111.318 105.146C110.902 105.127 110.484 105.145 110.043 105.145Z" fill="#49515E"/>
</svg>
