<svg width="260" height="112" viewBox="0 0 260 112" fill="none" xmlns="http://www.w3.org/2000/svg">
<path d="M136.283 47.7124H136.026V47.9638V75.855V76.1065H136.283H144.515H144.767V75.855V47.9638V47.7124H144.515H136.283Z" fill="#49515E"/>
<path d="M136.283 35.3804H136.026V35.6292V43.4384V43.6898H136.283H144.515H144.767V43.4384V35.6292V35.3804H144.515H136.283Z" fill="#49515E"/>
<path d="M122.825 47.5586H122.568V50.0291H121.875L121.76 49.9059C120.131 48.2435 117.966 47.2118 115.649 46.9942C115.318 46.9762 115.056 46.9711 114.81 46.9711C114.773 46.9673 114.735 46.9673 114.697 46.9711H114.674C106.231 47.0275 99.3638 53.6694 99.3638 61.7915C99.367 63.7038 99.7494 65.5964 100.489 67.36C101.228 69.1236 102.31 70.7231 103.671 72.066C105.132 73.5214 106.867 74.673 108.775 75.4542C110.683 76.2353 112.728 76.6305 114.79 76.6171C115.21 76.6171 115.654 76.594 116.19 76.5504C118.37 76.2311 120.376 75.1809 121.88 73.5719H122.573V75.95H130.464V47.5586H122.825ZM122.771 61.7864C122.778 63.9122 121.942 65.9542 120.446 67.4644C118.95 68.9746 116.915 69.8296 114.79 69.8418C113.745 69.8438 112.711 69.6388 111.747 69.2385C110.783 68.8382 109.907 68.2507 109.171 67.5098C107.656 65.9902 106.806 63.9321 106.806 61.7864C106.806 59.6407 107.656 57.5825 109.171 56.0629C109.908 55.3236 110.783 54.737 111.747 54.3368C112.711 53.9365 113.745 53.7305 114.788 53.7305C115.832 53.7305 116.865 53.9365 117.829 54.3368C118.793 54.737 119.669 55.3236 120.405 56.0629C121.159 56.8129 121.756 57.705 122.162 58.6875C122.568 59.67 122.775 60.7233 122.771 61.7864V61.7864Z" fill="#49515E"/>
<path d="M203.15 49.7902L199.461 43.5896L199.3 43.3921L199.102 43.5537C190.505 48.7436 186.172 52.8251 185.706 59.4208V76.096H194.269V60.0827C194.295 55.3957 197.453 53.7333 203.127 50.1443L203.317 50.0365L203.15 49.7902Z" fill="#49515E"/>
<path d="M180.831 63.6258L180.885 63.2539C180.978 62.7244 181.025 62.188 181.026 61.6505C181.025 59.7185 180.64 57.8059 179.894 56.0237C179.148 54.2415 178.056 52.6251 176.681 51.2682C175.205 49.7953 173.451 48.6302 171.521 47.8406C169.591 47.051 167.524 46.6525 165.439 46.6684C156.85 46.6684 149.869 53.3873 149.869 61.6479C149.871 63.5785 150.256 65.4895 151.002 67.2703C151.747 69.0511 152.839 70.6663 154.213 72.0225C155.678 73.4991 157.425 74.6668 159.35 75.4564C161.274 76.2461 163.338 76.6416 165.418 76.6197C171.111 76.6197 176.404 73.6874 179.21 69.062C179.349 68.8336 179.467 68.6028 179.59 68.3693L173.297 66.1656C173.207 66.3247 173.12 66.4863 173.015 66.6376C171.352 68.8311 169.166 70.3985 165.99 70.3985C161.665 70.3985 158.189 67.5766 157.371 63.6387L180.831 63.6258ZM165.729 52.8844C169.526 52.8844 172.807 55.2421 173.874 58.6566H157.586C158.152 56.9528 159.247 55.4742 160.711 54.4359C162.176 53.3977 163.934 52.8542 165.729 52.8844Z" fill="#49515E"/>
<path d="M84.7872 36.0166V51.9376H66.5907V36.0166H56.9216V76.1064H66.5907V59.3311H84.7872V76.1064H94.4537V36.0166H84.7872Z" fill="#49515E"/>
<path d="M202.974 70.0546C203.304 70.3884 203.564 70.7842 203.74 71.2193C203.916 71.6543 204.005 72.1199 204 72.5892C204.005 73.0674 203.913 73.5415 203.729 73.9827C203.544 74.4238 203.271 74.8227 202.927 75.1547C202.242 75.8265 201.322 76.2047 200.362 76.2091C199.882 76.2079 199.407 76.1094 198.966 75.9193C198.525 75.7293 198.127 75.4517 197.797 75.1034C197.124 74.4348 196.743 73.5273 196.737 72.579C196.738 72.0934 196.837 71.6129 197.026 71.1658C197.215 70.7187 197.492 70.3138 197.84 69.9751C198.17 69.6453 198.563 69.3847 198.995 69.2085C199.427 69.0323 199.89 68.944 200.357 68.9489C200.845 68.9456 201.329 69.0419 201.779 69.2321C202.229 69.4222 202.636 69.7021 202.974 70.0546V70.0546ZM198.299 70.4523C198.016 70.7314 197.791 71.0641 197.638 71.431C197.485 71.7979 197.406 72.1916 197.407 72.5892C197.413 73.3715 197.725 74.1201 198.278 74.6742C198.83 75.2283 199.577 75.5436 200.359 75.5523C201.144 75.5521 201.897 75.2455 202.458 74.698C203.021 74.1466 203.342 73.394 203.35 72.606C203.358 71.8179 203.053 71.0589 202.502 70.4959C201.95 69.9328 201.198 69.6119 200.41 69.6038C199.621 69.5956 198.862 69.9008 198.299 70.4523V70.4523ZM200.426 70.5215C201.573 70.5215 202.148 70.9294 202.148 71.6734C202.151 71.9221 202.069 72.1644 201.915 72.36C201.762 72.5555 201.546 72.6926 201.304 72.7483L202.189 74.4979H200.985L200.239 72.9176H199.923V74.4979H198.828V70.5267L200.426 70.5215ZM199.913 72.2711H200.298C200.775 72.2711 201.016 72.1018 201.016 71.7581C201.016 71.3707 200.76 71.2116 200.247 71.2116H199.921L199.913 72.2711Z" fill="#49515E"/>
</svg>
