<svg width="260" height="112" viewBox="0 0 260 112" fill="none" xmlns="http://www.w3.org/2000/svg">
<path fill-rule="evenodd" clip-rule="evenodd" d="M188.003 54.3395H188.678C189.158 54.2917 189.639 54.196 190.164 54.0508C190.942 53.8497 191.655 53.4506 192.234 52.8921C192.856 52.3606 193.195 51.4907 193.195 50.332C193.195 48.9802 192.809 48.1103 191.991 47.6763C191.222 47.2422 190.261 46.9995 189.156 46.9995H184.445L182.862 54.3892H187.569C187.716 54.3873 187.858 54.3873 188.003 54.3395ZM188.003 41.5887H191.899C192.379 41.5887 192.953 41.6365 193.629 41.6843C194.251 41.7321 194.926 41.8774 195.645 42.0705C196.849 42.4568 197.955 43.1814 198.961 44.1966C199.922 45.2596 200.451 46.902 200.451 49.1237C200.451 49.703 200.402 50.3301 200.259 51.0548C200.152 51.7838 199.959 52.4974 199.684 53.1808C199.013 54.8213 197.808 56.3203 196.031 57.6739C194.251 59.0238 191.561 59.7006 188.003 59.7503H181.755L179.738 69.2145H172.865L178.726 41.5887H188.003ZM227.366 59.4578C227.223 60.0868 226.98 60.7158 226.694 61.4883C226.382 62.2409 226.012 62.9677 225.587 63.6621C224.579 65.3045 223.186 66.7556 221.263 68.1055C219.339 69.4095 216.744 70.0844 213.428 70.0844L213.046 70.1341C209.347 70.0844 206.509 69.0711 204.488 66.9947C202.471 64.9643 201.461 62.2129 201.461 58.7829C201.461 57.9608 201.511 57.1405 201.608 56.3184C201.75 55.4485 201.893 54.6282 202.087 53.7583C202.81 50.5711 204.397 47.5751 206.798 44.8716C209.25 42.214 212.806 40.8622 217.467 40.8622H217.804C221.502 40.8622 224.198 41.4912 225.781 42.7455C227.368 44.0016 228.376 45.3534 228.762 46.9001C228.859 47.2385 228.905 47.6248 228.954 48.011C229 48.3972 229 48.7834 229 49.1715C229 49.4602 229 49.7986 228.954 50.0892C228.954 50.4276 228.905 50.7182 228.857 51.0088H222.126C222.126 50.8635 222.176 50.7679 222.176 50.6704V50.332C222.176 50.0911 222.126 49.8483 222.079 49.6074C222.079 49.3646 222.029 49.1237 221.936 48.8809C221.693 48.2059 221.261 47.6248 220.541 47.0932C219.866 46.5139 218.808 46.2252 217.321 46.2252C214.965 46.273 213.089 47.2385 211.744 49.1237C210.41 50.9108 209.534 53.0011 209.195 55.2094C209.098 55.6435 209.052 56.0793 209.003 56.5134C208.957 56.9474 208.957 57.3833 208.957 57.8173C208.957 58.1557 208.957 58.6394 209.003 59.1213C209.052 59.6528 209.149 60.1843 209.246 60.7636C209.486 61.7292 209.966 62.5991 210.687 63.4212C211.358 64.2911 212.467 64.7252 213.907 64.7252C214.294 64.7252 214.773 64.6755 215.397 64.5817C216.069 64.4346 216.74 64.1937 217.463 63.7596C218.038 63.3716 218.618 62.84 219.193 62.1651C219.722 61.4901 220.201 60.5705 220.54 59.4597H227.366V59.4578ZM157.196 64.4842C158.594 64.2688 159.88 63.5882 160.848 62.5513C162.049 61.1977 162.964 59.6988 163.443 58.0582C163.78 57.1424 164.022 56.2724 164.119 55.4025C164.261 54.5344 164.309 53.7602 164.309 53.133C164.309 51.0088 163.972 49.4621 163.255 48.4965C162.58 47.531 161.811 46.9038 160.993 46.6132C160.595 46.4407 160.175 46.3267 159.745 46.2748C159.359 46.227 159.022 46.1792 158.687 46.1792C158.158 46.1792 157.629 46.227 157.197 46.3245C155.563 46.6132 154.22 47.3875 153.259 48.5462C152.01 50.015 151.106 51.7482 150.615 53.6167C150.429 54.3162 150.285 55.0261 150.183 55.7428C150.092 56.3831 150.044 57.0289 150.04 57.6757V57.7217C150.04 58.0123 150.086 58.4481 150.086 59.0753C150.135 59.7006 150.278 60.3296 150.518 61.0542C150.807 61.9241 151.336 62.7462 152.104 63.5187C152.873 64.2415 154.074 64.6295 155.66 64.6755C156.187 64.6277 156.716 64.5799 157.196 64.4842ZM157.196 40.9119C157.822 40.864 158.543 40.8144 159.216 40.8144H159.602C163.734 40.8144 166.811 41.8774 168.782 44.0016C170.705 46.1755 171.666 48.8791 171.666 52.2134C171.666 52.6971 171.666 53.2286 171.617 53.7583C171.617 54.242 171.52 54.7717 171.474 55.3051C170.895 58.976 169.311 62.3563 166.666 65.3983C164.36 68.0559 161.187 69.5511 157.197 69.8913C156.572 69.9373 155.949 69.9851 155.325 69.9851L154.939 70.0348C154.365 69.9851 153.545 69.9373 152.487 69.8417C151.373 69.7329 150.276 69.4902 149.22 69.1189C147.586 68.5377 146.051 67.4269 144.702 65.882C143.307 64.2875 142.636 61.869 142.636 58.6376C142.636 58.1061 142.681 57.5746 142.733 57.043C142.778 56.5115 142.83 55.98 142.875 55.3988C143.501 51.7776 145.134 48.3954 147.826 45.4012C150.132 42.7952 153.256 41.2981 157.196 40.9119ZM128.886 60.5209C129.465 60.3278 129.944 60.039 130.376 59.6988C131.577 58.7829 132.396 57.7199 132.828 56.5593C133.02 56.0775 133.117 55.5956 133.214 55.0641C133.26 54.5823 133.308 54.1464 133.308 53.7123C133.308 53.5192 133.262 53.2783 133.262 53.0852L133.119 52.3606C132.876 51.5863 132.347 50.8138 131.481 50.1867C130.907 49.703 130.041 49.4142 128.886 49.269C128.357 49.1733 127.781 49.1733 127.157 49.1733H127.014L124.465 61.1517H124.611C126.341 61.1499 127.781 60.9568 128.886 60.5209ZM128.886 43.9538H129.704C130.279 43.9538 131.002 44.0016 131.82 44.0991C132.67 44.2063 133.507 44.4004 134.318 44.6785C135.905 45.21 137.296 46.1755 138.593 47.5273C139.894 48.9269 140.566 51.0051 140.566 53.7583C140.566 57.3814 139.171 60.3774 136.481 62.7904C134.512 64.4824 131.963 65.5914 128.886 66.0733C127.686 66.2664 126.341 66.3639 124.948 66.3639H123.936L123.122 70.2757H116.248L116.874 67.3294L117.066 66.3639H116.008C115.479 66.3639 114.756 66.3179 113.893 66.2204C112.977 66.0793 112.075 65.8533 111.201 65.5454C109.711 65.0139 108.316 64.0484 107.068 62.6469C105.817 61.2933 105.193 59.2169 105.193 56.5115V55.4963C105.242 55.1561 105.29 54.7717 105.339 54.4333C105.818 51.8254 107.259 49.4106 109.711 47.2367C111.44 45.6422 113.847 44.6766 116.874 44.1948C118.165 44.0354 119.465 43.9543 120.766 43.952H121.824L122.69 40.0401H129.466L128.888 42.8411L128.648 43.952H128.886V43.9538ZM116.872 61.0027C117.401 61.1002 117.977 61.1499 118.601 61.1499H118.744L121.293 49.1715H121.147C119.418 49.1715 117.977 49.3628 116.872 49.7986C116.353 49.9769 115.865 50.2377 115.428 50.5711C114.18 51.5366 113.362 52.5518 112.93 53.6627C112.738 54.196 112.593 54.7257 112.548 55.2094C112.451 55.7409 112.451 56.175 112.451 56.5593C112.451 58.3488 113.025 59.5553 114.228 60.1843C115.046 60.6184 115.911 60.8593 116.872 61.0027ZM61.1209 51.9725L61.6974 53.0834H61.1209C49.7782 53.1312 44.396 55.7409 43.7225 59.8937C43.146 63.6143 49.2969 67.0425 59.4391 66.6066L55.402 74H40.3112L47.2801 66.945C36.7554 66.1266 30.2184 59.6068 32.4292 55.3529C35.1212 50.1849 43.0508 45.1143 57.1808 44.2922L61.1209 51.9725ZM61.1209 59.0238L65.1104 66.7041C79.1928 65.8857 87.1206 60.8133 89.8127 55.6435C92.0252 51.3932 85.4882 44.8734 74.9653 44.0513L81.9324 37H66.8893L62.8522 44.3897C72.9468 43.9538 79.0976 47.3838 78.5212 51.1026C77.8459 55.2554 72.4618 57.867 61.1209 57.913H60.592L61.1209 59.0238Z" fill="#49515E"/>
</svg>
