<svg width="260" height="112" viewBox="0 0 260 112" fill="none" xmlns="http://www.w3.org/2000/svg">
<path d="M77.2998 70.1602L78.3498 71.4802V79.7502H80.9498V70.1602H77.2998Z" fill="#49515E"/>
<path d="M171.42 70.2598L172.47 71.5798V79.8398H174.94V70.2598H171.42Z" fill="#49515E"/>
<path d="M92.7202 70.2598L93.7702 71.6598V79.9298H96.3602V70.2598H92.7202Z" fill="#49515E"/>
<path d="M82.8398 72.7802L83.3198 70.1602H91.2798L91.6798 72.7002L90.3298 71.3002H88.3998V79.8402H85.9198V71.2002H84.3998L82.8398 72.7802Z" fill="#49515E"/>
<path d="M105.19 72.8901L105 70.5401C103.46 70.3501 102.21 69.7801 100.68 70.4501C99.15 71.1201 97.82 73.6301 99.82 75.0401C100.82 75.8101 105.09 77.5001 101.93 78.9101C101.299 79.0712 100.631 78.9978 100.05 78.7036C99.4684 78.4093 99.0137 77.9142 98.77 77.3101V78.7101C99.7025 79.3642 100.794 79.7546 101.93 79.8401C104.71 80.0401 106.04 77.5001 105.09 75.8401C104.101 74.8621 102.972 74.0364 101.74 73.3901C101.538 73.2458 101.373 73.0552 101.259 72.8343C101.145 72.6134 101.086 72.3685 101.086 72.1201C101.086 71.8716 101.145 71.6267 101.259 71.4058C101.373 71.1849 101.538 70.9944 101.74 70.8501C102.133 70.7409 102.547 70.7266 102.947 70.8083C103.346 70.89 103.721 71.0654 104.04 71.3201L105.19 72.8901Z" fill="#49515E"/>
<path d="M106.81 70.0601L107.97 71.4801V79.7501H110.65V75.3401H114.2V79.7501H116.97V70.1701H114.2V73.9101H110.65V70.0601H106.81Z" fill="#49515E"/>
<path d="M136.54 79.8402L138.35 71.9502L137.49 70.3402H140.54L142.76 74.8702L145.33 70.1602H147.65L149.19 79.8402H146.58L145.44 72.7802L142.09 79.1002L138.83 72.8902L137.3 79.8402H136.54Z" fill="#49515E"/>
<path d="M150.62 70.1602L151.67 71.2902V79.8402H158.19V77.9702L157.03 78.8102H154.16V74.9502H157.33V73.7402H154.16V71.2902H157.61V70.1602H150.62Z" fill="#49515E"/>
<path d="M185.6 73.1601L185.4 70.8101C181 68.9301 176.78 71.3801 177.74 76.3701C178.03 77.9701 180.43 79.8401 182.53 79.7501C183.559 79.7815 184.583 79.587 185.53 79.1801V77.5001C184.1 78.6301 182.74 79.3701 180.84 77.4001C178.84 74.8701 180.15 71.0001 183.84 71.2901C184.6 71.7501 184.98 72.5101 185.66 73.1601" fill="#49515E"/>
<path d="M197.86 70.1602L198.83 71.9502V79.8402H199.88V73.3602L205.53 79.8402H206.97V70.1602H205.73V76.4602L200.46 70.1602H197.86Z" fill="#49515E"/>
<path d="M61.1 68.6602C64.1 69.1302 63.88 72.6602 61.29 73.5402C64.94 74.6802 64.94 78.8102 60.91 79.8402H55V70.1602L54 68.6602H61.1ZM57.46 69.4902V73.4902C59.46 73.4902 60.52 73.2102 60.63 71.4902C60.81 70.0602 59.66 69.1302 57.46 69.4902V69.4902ZM57.46 74.4902V78.7302C59.86 78.7302 61.1 78.7302 61.19 76.5802C61.28 74.4302 59.77 74.2002 57.46 74.4702V74.4902Z" fill="#49515E"/>
<path d="M71.4401 70.2598C75.1001 70.2598 74.9101 74.5798 71.7401 75.2598L76.4301 79.8598H73.0701L68.8701 75.8598V79.8598H66.4701V71.5798L65.6001 70.2598H71.4401ZM69.0001 70.7098V74.2898C70.7301 74.2898 71.6801 74.0098 71.7801 72.5098C71.8801 71.0098 70.8801 70.6198 69.0001 70.7098Z" fill="#49515E"/>
<path d="M165.48 70.2598C169.02 70.2598 168.82 74.2598 165.77 74.9498L170.84 79.8398H167.39L163 75.4298V79.8398H160.8V71.4798L159.92 70.2598H165.48ZM163.08 71.0998V74.6798C164.7 74.6798 165.66 74.4698 165.77 72.9798C165.88 71.4898 164.9 70.8198 163.08 71.0998Z" fill="#49515E"/>
<path d="M123.88 79.8398L128.47 69.5898L127.47 68.0898H130.83L135.83 79.8398H133L131.35 75.8398H127.23L125.5 79.8398H123.88ZM131.06 74.9998L129.44 70.4098L127.62 74.9998H131.06Z" fill="#49515E"/>
<path d="M187 79.8398L190.84 71.4798L190 70.2598H192.8L196.8 79.8398H194.52L193.26 76.6498H189.71L188.37 79.8398H187ZM193 75.8398L191.64 72.0898L190.11 75.8398H193Z" fill="#49515E"/>
<path d="M92.8101 87.7499L93.3101 85.1099H102.88L103.26 87.6399L101.92 86.2299H99.2501V96.1999H96.8401V86.1499H94.3501L92.8101 87.7499Z" fill="#49515E"/>
<path d="M145.24 89.71L145.14 87.37C140.74 85.37 136.52 87.94 137.39 92.92C137.771 93.9018 138.444 94.743 139.319 95.3296C140.194 95.9162 141.227 96.2201 142.28 96.2C143.257 96.2613 144.235 96.1006 145.14 95.73V94.05C143.8 95.17 142.47 95.93 140.55 93.86C138.55 91.41 139.77 87.46 143.55 87.86C144.219 88.3877 144.8 89.019 145.27 89.73" fill="#49515E"/>
<path d="M155.31 89.8098L155.22 87.4598C150.81 85.4598 146.58 88.0198 147.45 92.9998C147.81 93.9921 148.476 94.8448 149.351 95.4358C150.225 96.0268 151.265 96.3257 152.32 96.2898C153.308 96.3583 154.299 96.2045 155.22 95.8398V94.1298C153.87 95.2598 152.53 96.0198 150.62 93.9498C148.5 91.4998 149.84 87.5598 153.62 87.9498C154.292 88.4781 154.875 89.1092 155.35 89.8198" fill="#49515E"/>
<path d="M122 86.8901C124.88 87.2701 124.69 90.1901 122.19 90.8901C125.73 91.8301 125.53 95.6801 121.9 96.0601H116.2V88.0601L115.2 86.8301L122 86.8901ZM118.54 87.5601V90.9401C120.46 90.9401 121.54 90.7601 121.61 89.3401C121.68 87.9201 120.61 87.2701 118.5 87.5601H118.54ZM118.54 91.6901V95.2601C120.85 95.2601 122.09 95.2601 122.09 93.4801C122.24 91.7901 120.72 91.5001 118.5 91.6901H118.54Z" fill="#49515E"/>
<path d="M126 96.1098L129.62 87.9998L128.75 86.7798H131.75L135.59 96.1798L133.2 96.0898L132.2 93.7498H128.28L127.28 96.0898L126 96.1098ZM131.85 92.7198L130.32 88.7198L128.69 92.7198H131.85Z" fill="#49515E"/>
<path d="M108.73 86.7198C111.59 86.7198 113.99 88.7798 113.99 91.4098C113.913 92.7294 113.316 93.9647 112.33 94.8455C111.344 95.7262 110.05 96.1808 108.73 96.1098C108.073 96.1777 107.409 96.1069 106.78 95.9019C106.152 95.6969 105.574 95.3623 105.084 94.9197C104.593 94.4771 104.201 93.9365 103.932 93.3327C103.664 92.729 103.525 92.0756 103.525 91.4148C103.525 90.7541 103.664 90.1007 103.932 89.4969C104.201 88.8932 104.593 88.3525 105.084 87.9099C105.574 87.4674 106.152 87.1328 106.78 86.9278C107.409 86.7227 108.073 86.6519 108.73 86.7198V86.7198ZM106 91.4998C106 93.7698 107.25 95.4998 108.69 95.4998C110.13 95.4998 111.38 93.7298 111.38 91.4998C111.38 89.2698 110.22 87.5598 108.69 87.5598C107.16 87.5598 106 89.3398 106 91.4998Z" fill="#49515E"/>
<path d="M163 86.7198C163.657 86.6519 164.321 86.7227 164.95 86.9278C165.578 87.1328 166.156 87.4674 166.646 87.9099C167.137 88.3525 167.529 88.8932 167.798 89.4969C168.066 90.1007 168.205 90.7541 168.205 91.4148C168.205 92.0756 168.066 92.729 167.798 93.3327C167.529 93.9365 167.137 94.4771 166.646 94.9197C166.156 95.3623 165.578 95.6969 164.95 95.9019C164.321 96.1069 163.657 96.1777 163 96.1098C161.678 96.1836 160.381 95.7302 159.393 94.8492C158.406 93.9681 157.807 92.7313 157.73 91.4098C157.73 88.7798 160.12 86.7198 163 86.7198ZM160.32 91.4998C160.32 93.7698 161.49 95.4998 163 95.4998C164.51 95.4998 165.68 93.7298 165.68 91.4998C165.68 89.2698 164.44 87.5598 163 87.5598C161.56 87.5598 160.29 89.3398 160.29 91.4998H160.32Z" fill="#49515E"/>
<path d="M114.74 61.66C101.45 61.66 89.1 48.46 86 33.57C97.8 32.92 112.32 37.34 119.09 44.13C118.6 32.45 123.51 20.08 130.48 13C139.07 20.84 142.18 35.74 142 43.85C151.81 36.4 162.27 33.66 175 34.13C171.6 49.33 159.71 62 145.76 61.86L156.22 56.11L142.83 60.26L162.35 43.48L139.15 59.12L144.81 47.33L136 58.84L137.89 46.67L132.08 58.55L130.87 23.12L128.87 58.27L123.31 46.48L125.58 58.55L116.44 47.81L121.81 59.22L98.34 43.28L118.31 60L105.31 55.56L114.74 61.66Z" fill="#49515E"/>
</svg>
